<mxfile host="app.diagrams.net" modified="2023-08-17T09:29:16.368Z" agent="Mozilla/5.0 (Windows NT 10.0; Win64; x64) AppleWebKit/537.36 (KHTML, like Gecko) Chrome/115.0.0.0 Safari/537.36 Edg/115.0.1901.203" etag="pSZ8mObeEUjJLJvC2fxc" version="21.3.2" type="github">
  <diagram id="6a731a19-8d31-9384-78a2-239565b7b9f0" name="Page-1">
    <mxGraphModel dx="2390" dy="1273" grid="1" gridSize="10" guides="1" tooltips="1" connect="1" arrows="1" fold="1" page="1" pageScale="1" pageWidth="1169" pageHeight="827" background="none" math="0" shadow="0">
      <root>
        <mxCell id="0" />
        <mxCell id="1" parent="0" />
        <mxCell id="MZEjRdD-iQo0y8Kbryy6-225" value="P4" style="rounded=0;whiteSpace=wrap;html=1;strokeWidth=3;fillColor=#bac8d3;strokeColor=#23445d;" vertex="1" parent="1">
          <mxGeometry x="80" y="540" width="50" height="30" as="geometry" />
        </mxCell>
        <mxCell id="MZEjRdD-iQo0y8Kbryy6-184" style="edgeStyle=orthogonalEdgeStyle;rounded=0;orthogonalLoop=1;jettySize=auto;html=1;entryX=0.5;entryY=0;entryDx=0;entryDy=0;dashed=1;dashPattern=8 8;" edge="1" parent="1" source="MZEjRdD-iQo0y8Kbryy6-146" target="MZEjRdD-iQo0y8Kbryy6-148">
          <mxGeometry relative="1" as="geometry" />
        </mxCell>
        <mxCell id="MZEjRdD-iQo0y8Kbryy6-203" style="edgeStyle=orthogonalEdgeStyle;rounded=0;orthogonalLoop=1;jettySize=auto;html=1;entryX=0.5;entryY=0;entryDx=0;entryDy=0;" edge="1" parent="1" source="MZEjRdD-iQo0y8Kbryy6-146" target="MZEjRdD-iQo0y8Kbryy6-199">
          <mxGeometry relative="1" as="geometry" />
        </mxCell>
        <mxCell id="MZEjRdD-iQo0y8Kbryy6-146" value="retarget" style="rounded=0;whiteSpace=wrap;html=1;" vertex="1" parent="1">
          <mxGeometry x="190" y="110" width="120" height="60" as="geometry" />
        </mxCell>
        <mxCell id="MZEjRdD-iQo0y8Kbryy6-205" style="edgeStyle=orthogonalEdgeStyle;rounded=0;orthogonalLoop=1;jettySize=auto;html=1;entryX=0.5;entryY=1;entryDx=0;entryDy=0;" edge="1" parent="1" source="MZEjRdD-iQo0y8Kbryy6-147" target="MZEjRdD-iQo0y8Kbryy6-199">
          <mxGeometry relative="1" as="geometry" />
        </mxCell>
        <mxCell id="MZEjRdD-iQo0y8Kbryy6-147" value="split" style="rounded=0;whiteSpace=wrap;html=1;" vertex="1" parent="1">
          <mxGeometry x="190" y="330" width="120" height="60" as="geometry" />
        </mxCell>
        <mxCell id="MZEjRdD-iQo0y8Kbryy6-189" style="edgeStyle=orthogonalEdgeStyle;rounded=0;orthogonalLoop=1;jettySize=auto;html=1;dashed=1;dashPattern=8 8;" edge="1" parent="1" source="MZEjRdD-iQo0y8Kbryy6-148" target="MZEjRdD-iQo0y8Kbryy6-147">
          <mxGeometry relative="1" as="geometry" />
        </mxCell>
        <mxCell id="MZEjRdD-iQo0y8Kbryy6-204" style="edgeStyle=orthogonalEdgeStyle;rounded=0;orthogonalLoop=1;jettySize=auto;html=1;" edge="1" parent="1" source="MZEjRdD-iQo0y8Kbryy6-148" target="MZEjRdD-iQo0y8Kbryy6-199">
          <mxGeometry relative="1" as="geometry" />
        </mxCell>
        <mxCell id="MZEjRdD-iQo0y8Kbryy6-148" value="enhance" style="rounded=0;whiteSpace=wrap;html=1;" vertex="1" parent="1">
          <mxGeometry x="190" y="220" width="120" height="60" as="geometry" />
        </mxCell>
        <mxCell id="MZEjRdD-iQo0y8Kbryy6-206" style="edgeStyle=orthogonalEdgeStyle;rounded=0;orthogonalLoop=1;jettySize=auto;html=1;" edge="1" parent="1" source="MZEjRdD-iQo0y8Kbryy6-149" target="MZEjRdD-iQo0y8Kbryy6-175">
          <mxGeometry relative="1" as="geometry" />
        </mxCell>
        <mxCell id="MZEjRdD-iQo0y8Kbryy6-149" value="traits" style="rounded=0;whiteSpace=wrap;html=1;" vertex="1" parent="1">
          <mxGeometry x="490" y="100" width="120" height="60" as="geometry" />
        </mxCell>
        <mxCell id="MZEjRdD-iQo0y8Kbryy6-207" style="edgeStyle=orthogonalEdgeStyle;rounded=0;orthogonalLoop=1;jettySize=auto;html=1;entryX=0;entryY=0.5;entryDx=0;entryDy=0;" edge="1" parent="1" source="MZEjRdD-iQo0y8Kbryy6-150" target="MZEjRdD-iQo0y8Kbryy6-166">
          <mxGeometry relative="1" as="geometry" />
        </mxCell>
        <mxCell id="MZEjRdD-iQo0y8Kbryy6-150" value="bone info" style="rounded=0;whiteSpace=wrap;html=1;" vertex="1" parent="1">
          <mxGeometry x="490" y="220" width="120" height="60" as="geometry" />
        </mxCell>
        <mxCell id="MZEjRdD-iQo0y8Kbryy6-210" style="edgeStyle=orthogonalEdgeStyle;rounded=0;orthogonalLoop=1;jettySize=auto;html=1;entryX=0;entryY=0.5;entryDx=0;entryDy=0;" edge="1" parent="1" source="MZEjRdD-iQo0y8Kbryy6-159" target="MZEjRdD-iQo0y8Kbryy6-176">
          <mxGeometry relative="1" as="geometry" />
        </mxCell>
        <mxCell id="MZEjRdD-iQo0y8Kbryy6-159" value=".json" style="ellipse;whiteSpace=wrap;html=1;fillColor=#fff2cc;strokeColor=#d6b656;" vertex="1" parent="1">
          <mxGeometry x="950" y="220" width="90" height="60" as="geometry" />
        </mxCell>
        <mxCell id="MZEjRdD-iQo0y8Kbryy6-218" style="edgeStyle=orthogonalEdgeStyle;rounded=0;orthogonalLoop=1;jettySize=auto;html=1;entryX=0;entryY=0.5;entryDx=0;entryDy=0;" edge="1" parent="1" source="MZEjRdD-iQo0y8Kbryy6-162" target="MZEjRdD-iQo0y8Kbryy6-194">
          <mxGeometry relative="1" as="geometry" />
        </mxCell>
        <mxCell id="MZEjRdD-iQo0y8Kbryy6-162" value=".anim" style="ellipse;whiteSpace=wrap;html=1;fillColor=#f8cecc;strokeColor=#b85450;" vertex="1" parent="1">
          <mxGeometry x="660" y="420" width="90" height="60" as="geometry" />
        </mxCell>
        <mxCell id="MZEjRdD-iQo0y8Kbryy6-163" value=".ani" style="ellipse;whiteSpace=wrap;html=1;fillColor=#f8cecc;strokeColor=#b85450;" vertex="1" parent="1">
          <mxGeometry x="660" y="330" width="90" height="60" as="geometry" />
        </mxCell>
        <mxCell id="MZEjRdD-iQo0y8Kbryy6-164" value=".anim.org" style="ellipse;whiteSpace=wrap;html=1;" vertex="1" parent="1">
          <mxGeometry x="660" y="510" width="90" height="60" as="geometry" />
        </mxCell>
        <mxCell id="MZEjRdD-iQo0y8Kbryy6-220" style="edgeStyle=orthogonalEdgeStyle;rounded=0;orthogonalLoop=1;jettySize=auto;html=1;entryX=0;entryY=0.5;entryDx=0;entryDy=0;" edge="1" parent="1" source="MZEjRdD-iQo0y8Kbryy6-165" target="MZEjRdD-iQo0y8Kbryy6-180">
          <mxGeometry relative="1" as="geometry" />
        </mxCell>
        <mxCell id="MZEjRdD-iQo0y8Kbryy6-165" value="org.skeleton" style="ellipse;whiteSpace=wrap;html=1;" vertex="1" parent="1">
          <mxGeometry x="660" y="600" width="90" height="60" as="geometry" />
        </mxCell>
        <mxCell id="MZEjRdD-iQo0y8Kbryy6-216" style="edgeStyle=orthogonalEdgeStyle;rounded=0;orthogonalLoop=1;jettySize=auto;html=1;" edge="1" parent="1" source="MZEjRdD-iQo0y8Kbryy6-166" target="MZEjRdD-iQo0y8Kbryy6-178">
          <mxGeometry relative="1" as="geometry" />
        </mxCell>
        <mxCell id="MZEjRdD-iQo0y8Kbryy6-166" value="skeleton_info.txt" style="ellipse;whiteSpace=wrap;html=1;fillColor=#fff2cc;strokeColor=#d6b656;" vertex="1" parent="1">
          <mxGeometry x="660" y="220" width="90" height="60" as="geometry" />
        </mxCell>
        <mxCell id="MZEjRdD-iQo0y8Kbryy6-167" value=".motion" style="ellipse;whiteSpace=wrap;html=1;fillColor=#f8cecc;strokeColor=#b85450;" vertex="1" parent="1">
          <mxGeometry x="950" y="420" width="90" height="60" as="geometry" />
        </mxCell>
        <mxCell id="MZEjRdD-iQo0y8Kbryy6-169" value="bindata" style="ellipse;whiteSpace=wrap;html=1;fillColor=#f8cecc;strokeColor=#b85450;" vertex="1" parent="1">
          <mxGeometry x="1219" y="220" width="90" height="60" as="geometry" />
        </mxCell>
        <mxCell id="MZEjRdD-iQo0y8Kbryy6-170" value="mar_bin" style="ellipse;whiteSpace=wrap;html=1;fillColor=#f8cecc;strokeColor=#b85450;" vertex="1" parent="1">
          <mxGeometry x="950" y="100" width="90" height="60" as="geometry" />
        </mxCell>
        <mxCell id="MZEjRdD-iQo0y8Kbryy6-183" style="edgeStyle=orthogonalEdgeStyle;rounded=0;orthogonalLoop=1;jettySize=auto;html=1;entryX=0.5;entryY=0;entryDx=0;entryDy=0;" edge="1" parent="1" source="MZEjRdD-iQo0y8Kbryy6-171" target="MZEjRdD-iQo0y8Kbryy6-146">
          <mxGeometry relative="1" as="geometry" />
        </mxCell>
        <mxCell id="MZEjRdD-iQo0y8Kbryy6-171" value="OriginFbx" style="ellipse;whiteSpace=wrap;html=1;fillColor=#dae8fc;strokeColor=#6c8ebf;" vertex="1" parent="1">
          <mxGeometry x="50" y="50" width="90" height="60" as="geometry" />
        </mxCell>
        <mxCell id="MZEjRdD-iQo0y8Kbryy6-181" style="edgeStyle=orthogonalEdgeStyle;rounded=0;orthogonalLoop=1;jettySize=auto;html=1;exitX=0.5;exitY=0;exitDx=0;exitDy=0;entryX=0.5;entryY=1;entryDx=0;entryDy=0;" edge="1" parent="1" source="MZEjRdD-iQo0y8Kbryy6-172" target="MZEjRdD-iQo0y8Kbryy6-174">
          <mxGeometry relative="1" as="geometry" />
        </mxCell>
        <mxCell id="MZEjRdD-iQo0y8Kbryy6-172" value="OriginMax" style="ellipse;whiteSpace=wrap;html=1;fillColor=#dae8fc;strokeColor=#6c8ebf;" vertex="1" parent="1">
          <mxGeometry x="50" y="310" width="90" height="60" as="geometry" />
        </mxCell>
        <mxCell id="MZEjRdD-iQo0y8Kbryy6-182" style="edgeStyle=orthogonalEdgeStyle;rounded=0;orthogonalLoop=1;jettySize=auto;html=1;entryX=0.5;entryY=1;entryDx=0;entryDy=0;" edge="1" parent="1" source="MZEjRdD-iQo0y8Kbryy6-174" target="MZEjRdD-iQo0y8Kbryy6-171">
          <mxGeometry relative="1" as="geometry" />
        </mxCell>
        <mxCell id="MZEjRdD-iQo0y8Kbryy6-174" value="MaxConvert" style="rounded=0;whiteSpace=wrap;html=1;" vertex="1" parent="1">
          <mxGeometry x="35" y="180" width="120" height="60" as="geometry" />
        </mxCell>
        <mxCell id="MZEjRdD-iQo0y8Kbryy6-222" style="edgeStyle=orthogonalEdgeStyle;rounded=0;orthogonalLoop=1;jettySize=auto;html=1;entryX=0;entryY=0.5;entryDx=0;entryDy=0;" edge="1" parent="1" source="MZEjRdD-iQo0y8Kbryy6-175" target="MZEjRdD-iQo0y8Kbryy6-195">
          <mxGeometry relative="1" as="geometry" />
        </mxCell>
        <mxCell id="MZEjRdD-iQo0y8Kbryy6-175" value="meta" style="ellipse;whiteSpace=wrap;html=1;fillColor=#fff2cc;strokeColor=#d6b656;" vertex="1" parent="1">
          <mxGeometry x="660" y="100" width="90" height="60" as="geometry" />
        </mxCell>
        <mxCell id="MZEjRdD-iQo0y8Kbryy6-211" style="edgeStyle=orthogonalEdgeStyle;rounded=0;orthogonalLoop=1;jettySize=auto;html=1;entryX=0;entryY=0.5;entryDx=0;entryDy=0;" edge="1" parent="1" source="MZEjRdD-iQo0y8Kbryy6-176" target="MZEjRdD-iQo0y8Kbryy6-169">
          <mxGeometry relative="1" as="geometry" />
        </mxCell>
        <mxCell id="MZEjRdD-iQo0y8Kbryy6-176" value="JsonToBinary&lt;br&gt;(GraphParser)" style="rounded=0;whiteSpace=wrap;html=1;" vertex="1" parent="1">
          <mxGeometry x="1070" y="220" width="120" height="60" as="geometry" />
        </mxCell>
        <mxCell id="MZEjRdD-iQo0y8Kbryy6-212" style="edgeStyle=orthogonalEdgeStyle;rounded=0;orthogonalLoop=1;jettySize=auto;html=1;entryX=0;entryY=0.5;entryDx=0;entryDy=0;" edge="1" parent="1" source="MZEjRdD-iQo0y8Kbryy6-177" target="MZEjRdD-iQo0y8Kbryy6-163">
          <mxGeometry relative="1" as="geometry" />
        </mxCell>
        <mxCell id="MZEjRdD-iQo0y8Kbryy6-213" style="edgeStyle=orthogonalEdgeStyle;rounded=0;orthogonalLoop=1;jettySize=auto;html=1;entryX=0;entryY=0.5;entryDx=0;entryDy=0;" edge="1" parent="1" source="MZEjRdD-iQo0y8Kbryy6-177" target="MZEjRdD-iQo0y8Kbryy6-162">
          <mxGeometry relative="1" as="geometry" />
        </mxCell>
        <mxCell id="MZEjRdD-iQo0y8Kbryy6-214" style="edgeStyle=orthogonalEdgeStyle;rounded=0;orthogonalLoop=1;jettySize=auto;html=1;entryX=0;entryY=0.5;entryDx=0;entryDy=0;" edge="1" parent="1" source="MZEjRdD-iQo0y8Kbryy6-177" target="MZEjRdD-iQo0y8Kbryy6-164">
          <mxGeometry relative="1" as="geometry" />
        </mxCell>
        <mxCell id="MZEjRdD-iQo0y8Kbryy6-215" style="edgeStyle=orthogonalEdgeStyle;rounded=0;orthogonalLoop=1;jettySize=auto;html=1;entryX=0;entryY=0.5;entryDx=0;entryDy=0;" edge="1" parent="1" source="MZEjRdD-iQo0y8Kbryy6-177" target="MZEjRdD-iQo0y8Kbryy6-165">
          <mxGeometry relative="1" as="geometry" />
        </mxCell>
        <mxCell id="MZEjRdD-iQo0y8Kbryy6-177" value="WinMae" style="rounded=0;whiteSpace=wrap;html=1;" vertex="1" parent="1">
          <mxGeometry x="490" y="330" width="120" height="60" as="geometry" />
        </mxCell>
        <mxCell id="MZEjRdD-iQo0y8Kbryy6-209" style="edgeStyle=orthogonalEdgeStyle;rounded=0;orthogonalLoop=1;jettySize=auto;html=1;entryX=0;entryY=0.5;entryDx=0;entryDy=0;" edge="1" parent="1" source="MZEjRdD-iQo0y8Kbryy6-178" target="MZEjRdD-iQo0y8Kbryy6-159">
          <mxGeometry relative="1" as="geometry" />
        </mxCell>
        <mxCell id="MZEjRdD-iQo0y8Kbryy6-178" value="JsonMerge&lt;br&gt;（AnimGitExport）" style="rounded=0;whiteSpace=wrap;html=1;" vertex="1" parent="1">
          <mxGeometry x="790" y="220" width="120" height="60" as="geometry" />
        </mxCell>
        <mxCell id="MZEjRdD-iQo0y8Kbryy6-217" style="edgeStyle=orthogonalEdgeStyle;rounded=0;orthogonalLoop=1;jettySize=auto;html=1;exitX=0.5;exitY=0;exitDx=0;exitDy=0;entryX=0.5;entryY=1;entryDx=0;entryDy=0;" edge="1" parent="1" source="MZEjRdD-iQo0y8Kbryy6-179" target="MZEjRdD-iQo0y8Kbryy6-178">
          <mxGeometry relative="1" as="geometry" />
        </mxCell>
        <mxCell id="MZEjRdD-iQo0y8Kbryy6-179" value="动画管理表&lt;br&gt;excel" style="ellipse;whiteSpace=wrap;html=1;fillColor=#dae8fc;strokeColor=#6c8ebf;" vertex="1" parent="1">
          <mxGeometry x="805" y="300" width="90" height="60" as="geometry" />
        </mxCell>
        <mxCell id="MZEjRdD-iQo0y8Kbryy6-221" style="edgeStyle=orthogonalEdgeStyle;rounded=0;orthogonalLoop=1;jettySize=auto;html=1;entryX=0;entryY=0.5;entryDx=0;entryDy=0;" edge="1" parent="1" source="MZEjRdD-iQo0y8Kbryy6-180" target="MZEjRdD-iQo0y8Kbryy6-196">
          <mxGeometry relative="1" as="geometry" />
        </mxCell>
        <mxCell id="MZEjRdD-iQo0y8Kbryy6-180" value="skeleton&lt;br&gt;postprocess" style="rounded=0;whiteSpace=wrap;html=1;" vertex="1" parent="1">
          <mxGeometry x="790" y="600" width="120" height="60" as="geometry" />
        </mxCell>
        <mxCell id="MZEjRdD-iQo0y8Kbryy6-188" style="edgeStyle=orthogonalEdgeStyle;rounded=0;orthogonalLoop=1;jettySize=auto;html=1;entryX=0.5;entryY=1;entryDx=0;entryDy=0;" edge="1" parent="1" source="MZEjRdD-iQo0y8Kbryy6-187" target="MZEjRdD-iQo0y8Kbryy6-147">
          <mxGeometry relative="1" as="geometry" />
        </mxCell>
        <mxCell id="MZEjRdD-iQo0y8Kbryy6-187" value="rule" style="ellipse;whiteSpace=wrap;html=1;fillColor=#dae8fc;strokeColor=#6c8ebf;" vertex="1" parent="1">
          <mxGeometry x="205" y="430" width="90" height="60" as="geometry" />
        </mxCell>
        <mxCell id="MZEjRdD-iQo0y8Kbryy6-219" style="edgeStyle=orthogonalEdgeStyle;rounded=0;orthogonalLoop=1;jettySize=auto;html=1;exitX=1;exitY=0.5;exitDx=0;exitDy=0;entryX=0;entryY=0.5;entryDx=0;entryDy=0;" edge="1" parent="1" source="MZEjRdD-iQo0y8Kbryy6-194" target="MZEjRdD-iQo0y8Kbryy6-167">
          <mxGeometry relative="1" as="geometry" />
        </mxCell>
        <mxCell id="MZEjRdD-iQo0y8Kbryy6-194" value="MessiahClient" style="rounded=0;whiteSpace=wrap;html=1;" vertex="1" parent="1">
          <mxGeometry x="790" y="420" width="120" height="60" as="geometry" />
        </mxCell>
        <mxCell id="MZEjRdD-iQo0y8Kbryy6-223" style="edgeStyle=orthogonalEdgeStyle;rounded=0;orthogonalLoop=1;jettySize=auto;html=1;entryX=0;entryY=0.5;entryDx=0;entryDy=0;" edge="1" parent="1" source="MZEjRdD-iQo0y8Kbryy6-195" target="MZEjRdD-iQo0y8Kbryy6-170">
          <mxGeometry relative="1" as="geometry" />
        </mxCell>
        <mxCell id="MZEjRdD-iQo0y8Kbryy6-195" value="MarBinaryConverter" style="rounded=0;whiteSpace=wrap;html=1;" vertex="1" parent="1">
          <mxGeometry x="790" y="100" width="120" height="60" as="geometry" />
        </mxCell>
        <mxCell id="MZEjRdD-iQo0y8Kbryy6-196" value=".skeleton" style="ellipse;whiteSpace=wrap;html=1;fillColor=#f8cecc;strokeColor=#b85450;" vertex="1" parent="1">
          <mxGeometry x="950" y="600" width="90" height="60" as="geometry" />
        </mxCell>
        <mxCell id="MZEjRdD-iQo0y8Kbryy6-200" style="edgeStyle=orthogonalEdgeStyle;rounded=0;orthogonalLoop=1;jettySize=auto;html=1;entryX=0;entryY=0.5;entryDx=0;entryDy=0;" edge="1" parent="1" source="MZEjRdD-iQo0y8Kbryy6-199" target="MZEjRdD-iQo0y8Kbryy6-149">
          <mxGeometry relative="1" as="geometry" />
        </mxCell>
        <mxCell id="MZEjRdD-iQo0y8Kbryy6-201" style="edgeStyle=orthogonalEdgeStyle;rounded=0;orthogonalLoop=1;jettySize=auto;html=1;" edge="1" parent="1" source="MZEjRdD-iQo0y8Kbryy6-199" target="MZEjRdD-iQo0y8Kbryy6-150">
          <mxGeometry relative="1" as="geometry" />
        </mxCell>
        <mxCell id="MZEjRdD-iQo0y8Kbryy6-202" style="edgeStyle=orthogonalEdgeStyle;rounded=0;orthogonalLoop=1;jettySize=auto;html=1;entryX=0;entryY=0.5;entryDx=0;entryDy=0;" edge="1" parent="1" source="MZEjRdD-iQo0y8Kbryy6-199" target="MZEjRdD-iQo0y8Kbryy6-177">
          <mxGeometry relative="1" as="geometry" />
        </mxCell>
        <mxCell id="MZEjRdD-iQo0y8Kbryy6-199" value="Fbx" style="ellipse;whiteSpace=wrap;html=1;fillColor=#fff2cc;strokeColor=#d6b656;" vertex="1" parent="1">
          <mxGeometry x="340" y="220" width="90" height="60" as="geometry" />
        </mxCell>
        <mxCell id="MZEjRdD-iQo0y8Kbryy6-226" value="Python" style="rounded=0;whiteSpace=wrap;html=1;strokeWidth=3;fillColor=#b1ddf0;strokeColor=#10739e;" vertex="1" parent="1">
          <mxGeometry x="80" y="590" width="50" height="30" as="geometry" />
        </mxCell>
        <mxCell id="MZEjRdD-iQo0y8Kbryy6-227" value="Maya" style="rounded=0;whiteSpace=wrap;html=1;strokeWidth=3;fillColor=#fad7ac;strokeColor=#b46504;" vertex="1" parent="1">
          <mxGeometry x="80" y="640" width="50" height="30" as="geometry" />
        </mxCell>
        <mxCell id="MZEjRdD-iQo0y8Kbryy6-228" value="Client" style="rounded=0;whiteSpace=wrap;html=1;strokeWidth=3;fillColor=#fad9d5;strokeColor=#ae4132;" vertex="1" parent="1">
          <mxGeometry x="80" y="690" width="50" height="30" as="geometry" />
        </mxCell>
        <mxCell id="MZEjRdD-iQo0y8Kbryy6-229" value="Input" style="ellipse;whiteSpace=wrap;html=1;fillColor=#dae8fc;strokeColor=#6c8ebf;" vertex="1" parent="1">
          <mxGeometry x="180" y="550" width="60" height="40" as="geometry" />
        </mxCell>
        <mxCell id="MZEjRdD-iQo0y8Kbryy6-231" value="Output" style="ellipse;whiteSpace=wrap;html=1;fillColor=#f8cecc;strokeColor=#b85450;" vertex="1" parent="1">
          <mxGeometry x="180" y="610" width="60" height="40" as="geometry" />
        </mxCell>
        <mxCell id="MZEjRdD-iQo0y8Kbryy6-232" value="Internal" style="ellipse;whiteSpace=wrap;html=1;fillColor=#fff2cc;strokeColor=#d6b656;" vertex="1" parent="1">
          <mxGeometry x="180" y="670" width="60" height="40" as="geometry" />
        </mxCell>
        <mxCell id="MZEjRdD-iQo0y8Kbryy6-234" value="SVN" style="rounded=0;whiteSpace=wrap;html=1;strokeWidth=3;fillColor=#d0cee2;strokeColor=#56517e;" vertex="1" parent="1">
          <mxGeometry x="80" y="490" width="50" height="30" as="geometry" />
        </mxCell>
      </root>
    </mxGraphModel>
  </diagram>
</mxfile>
